<mxfile host="drawio-plugin" modified="2023-12-21T09:34:12.653Z" agent="5.0 (Windows NT 10.0; Win64; x64) AppleWebKit/537.36 (KHTML, like Gecko) Chrome/111.0.0.0 Safari/537.36" etag="TWbXZTlrmfCCCmpXzLRY" version="20.5.3" type="embed"><diagram name="第 1 页" id="j3XViWv7Z2x4sv4psIhH"><mxGraphModel dx="755" dy="382" grid="1" gridSize="10" guides="1" tooltips="1" connect="1" arrows="1" fold="1" page="1" pageScale="1" pageWidth="827" pageHeight="1169" math="0" shadow="0"><root><mxCell id="0"/><mxCell id="1" parent="0"/><mxCell id="42" value="" style="swimlane;startSize=0;rounded=1;sketch=1;hachureGap=4;jiggle=2;strokeColor=#D0CEE2;fontFamily=Architects Daughter;fontSource=https%3A%2F%2Ffonts.googleapis.com%2Fcss%3Ffamily%3DArchitects%2BDaughter;fontSize=20;fontColor=#FFFFFF;fillColor=#5D7F99;" parent="1" vertex="1"><mxGeometry x="30" y="20" width="440" height="530" as="geometry"/></mxCell><mxCell id="z0B_1MBxLSLZRJ2WrU6A-1" value="启动模块" style="rounded=1;whiteSpace=wrap;html=1;sketch=1;fillColor=#5D7F99;strokeColor=#D0CEE2;fontColor=#FFFFFF;" parent="42" vertex="1"><mxGeometry x="40" y="300" width="120" height="60" as="geometry"/></mxCell><mxCell id="z0B_1MBxLSLZRJ2WrU6A-2" value="&lt;font color=&quot;#ffffff&quot;&gt;接收请求模块&lt;/font&gt;" style="rounded=1;whiteSpace=wrap;html=1;sketch=1;fillColor=#5D7F99;strokeColor=#D0CEE2;fontColor=#1A1A1A;" parent="42" vertex="1"><mxGeometry x="300" y="180" width="120" height="60" as="geometry"/></mxCell><mxCell id="z0B_1MBxLSLZRJ2WrU6A-6" style="edgeStyle=orthogonalEdgeStyle;rounded=1;orthogonalLoop=1;jettySize=auto;html=1;exitX=1;exitY=0.5;exitDx=0;exitDy=0;entryX=0;entryY=0.5;entryDx=0;entryDy=0;sketch=1;strokeColor=#736CA8;fontColor=#1A1A1A;" parent="42" source="z0B_1MBxLSLZRJ2WrU6A-1" target="z0B_1MBxLSLZRJ2WrU6A-2" edge="1"><mxGeometry relative="1" as="geometry"/></mxCell><mxCell id="z0B_1MBxLSLZRJ2WrU6A-3" value="请求解析模块" style="rounded=1;whiteSpace=wrap;html=1;sketch=1;fillColor=#5D7F99;strokeColor=#D0CEE2;fontColor=#FFFFFF;" parent="42" vertex="1"><mxGeometry x="300" y="270" width="120" height="60" as="geometry"/></mxCell><mxCell id="z0B_1MBxLSLZRJ2WrU6A-9" style="edgeStyle=orthogonalEdgeStyle;rounded=1;orthogonalLoop=1;jettySize=auto;html=1;exitX=1;exitY=0.5;exitDx=0;exitDy=0;sketch=1;strokeColor=#736CA8;fontColor=#1A1A1A;" parent="42" source="z0B_1MBxLSLZRJ2WrU6A-1" target="z0B_1MBxLSLZRJ2WrU6A-3" edge="1"><mxGeometry relative="1" as="geometry"/></mxCell><mxCell id="z0B_1MBxLSLZRJ2WrU6A-12" style="edgeStyle=orthogonalEdgeStyle;rounded=1;orthogonalLoop=1;jettySize=auto;html=1;sketch=1;strokeColor=#736CA8;fontColor=#1A1A1A;" parent="42" source="z0B_1MBxLSLZRJ2WrU6A-2" target="z0B_1MBxLSLZRJ2WrU6A-3" edge="1"><mxGeometry relative="1" as="geometry"/></mxCell><mxCell id="z0B_1MBxLSLZRJ2WrU6A-4" value="请求处理模块" style="rounded=1;whiteSpace=wrap;html=1;sketch=1;fillColor=#5D7F99;strokeColor=#D0CEE2;fontColor=#FFFFFF;" parent="42" vertex="1"><mxGeometry x="300" y="350" width="120" height="60" as="geometry"/></mxCell><mxCell id="z0B_1MBxLSLZRJ2WrU6A-10" style="edgeStyle=orthogonalEdgeStyle;rounded=1;orthogonalLoop=1;jettySize=auto;html=1;exitX=1;exitY=0.5;exitDx=0;exitDy=0;entryX=0;entryY=0.5;entryDx=0;entryDy=0;sketch=1;strokeColor=#736CA8;fontColor=#1A1A1A;" parent="42" source="z0B_1MBxLSLZRJ2WrU6A-1" target="z0B_1MBxLSLZRJ2WrU6A-4" edge="1"><mxGeometry relative="1" as="geometry"/></mxCell><mxCell id="z0B_1MBxLSLZRJ2WrU6A-13" style="edgeStyle=orthogonalEdgeStyle;rounded=1;orthogonalLoop=1;jettySize=auto;html=1;sketch=1;strokeColor=#736CA8;fontColor=#1A1A1A;" parent="42" source="z0B_1MBxLSLZRJ2WrU6A-3" target="z0B_1MBxLSLZRJ2WrU6A-4" edge="1"><mxGeometry relative="1" as="geometry"/></mxCell><mxCell id="z0B_1MBxLSLZRJ2WrU6A-5" value="请求回复模块" style="rounded=1;whiteSpace=wrap;html=1;sketch=1;fillColor=#5D7F99;strokeColor=#D0CEE2;fontColor=#FFFFFF;" parent="42" vertex="1"><mxGeometry x="300" y="435" width="120" height="60" as="geometry"/></mxCell><mxCell id="z0B_1MBxLSLZRJ2WrU6A-11" style="edgeStyle=orthogonalEdgeStyle;rounded=1;orthogonalLoop=1;jettySize=auto;html=1;exitX=1;exitY=0.5;exitDx=0;exitDy=0;entryX=0;entryY=0.5;entryDx=0;entryDy=0;sketch=1;strokeColor=#736CA8;fontColor=#1A1A1A;" parent="42" source="z0B_1MBxLSLZRJ2WrU6A-1" target="z0B_1MBxLSLZRJ2WrU6A-5" edge="1"><mxGeometry relative="1" as="geometry"/></mxCell><mxCell id="z0B_1MBxLSLZRJ2WrU6A-14" style="edgeStyle=orthogonalEdgeStyle;rounded=1;orthogonalLoop=1;jettySize=auto;html=1;sketch=1;strokeColor=#736CA8;fontColor=#1A1A1A;" parent="42" source="z0B_1MBxLSLZRJ2WrU6A-4" target="z0B_1MBxLSLZRJ2WrU6A-5" edge="1"><mxGeometry relative="1" as="geometry"/></mxCell><mxCell id="z0B_1MBxLSLZRJ2WrU6A-17" style="edgeStyle=orthogonalEdgeStyle;rounded=1;orthogonalLoop=1;jettySize=auto;html=1;entryX=0.5;entryY=0;entryDx=0;entryDy=0;sketch=1;strokeColor=#736CA8;fontColor=#1A1A1A;" parent="42" source="z0B_1MBxLSLZRJ2WrU6A-15" target="z0B_1MBxLSLZRJ2WrU6A-2" edge="1"><mxGeometry relative="1" as="geometry"/></mxCell><mxCell id="z0B_1MBxLSLZRJ2WrU6A-15" value="&lt;font color=&quot;#ffffff&quot;&gt;客户端&lt;/font&gt;" style="rounded=1;whiteSpace=wrap;html=1;sketch=1;fillColor=#5D7F99;strokeColor=#D0CEE2;fontColor=#1A1A1A;" parent="42" vertex="1"><mxGeometry x="30" y="10" width="120" height="60" as="geometry"/></mxCell><mxCell id="z0B_1MBxLSLZRJ2WrU6A-19" style="edgeStyle=orthogonalEdgeStyle;rounded=1;orthogonalLoop=1;jettySize=auto;html=1;exitX=0.5;exitY=1;exitDx=0;exitDy=0;entryX=0;entryY=0.5;entryDx=0;entryDy=0;sketch=1;strokeColor=#736CA8;fontColor=#1A1A1A;" parent="42" source="z0B_1MBxLSLZRJ2WrU6A-5" target="z0B_1MBxLSLZRJ2WrU6A-15" edge="1"><mxGeometry relative="1" as="geometry"/></mxCell><mxCell id="43" value="RequestReceiverModule" style="swimlane;whiteSpace=wrap;html=1;rounded=1;sketch=1;hachureGap=4;jiggle=2;strokeColor=#D0CEE2;fontFamily=Architects Daughter;fontSource=https%3A%2F%2Ffonts.googleapis.com%2Fcss%3Ffamily%3DArchitects%2BDaughter;fontSize=20;fontColor=#FFFFFF;fillColor=#5D7F99;" parent="1" vertex="1"><mxGeometry x="530" y="25" width="770" height="515" as="geometry"/></mxCell><mxCell id="48" style="edgeStyle=orthogonalEdgeStyle;rounded=1;sketch=1;hachureGap=4;jiggle=2;orthogonalLoop=1;jettySize=auto;html=1;entryX=0;entryY=0.5;entryDx=0;entryDy=0;strokeColor=#736CA8;fontFamily=Architects Daughter;fontSource=https%3A%2F%2Ffonts.googleapis.com%2Fcss%3Ffamily%3DArchitects%2BDaughter;fontSize=16;fontColor=#FFFFFF;startArrow=none;" parent="43" source="49" target="47" edge="1"><mxGeometry relative="1" as="geometry"/></mxCell><mxCell id="44" value="HttpServer" style="rounded=1;whiteSpace=wrap;html=1;sketch=1;hachureGap=4;jiggle=2;strokeColor=#D0CEE2;fontFamily=Architects Daughter;fontSource=https%3A%2F%2Ffonts.googleapis.com%2Fcss%3Ffamily%3DArchitects%2BDaughter;fontSize=20;fontColor=#FFFFFF;fillColor=#5D7F99;" parent="43" vertex="1"><mxGeometry x="20" y="45" width="120" height="60" as="geometry"/></mxCell><mxCell id="47" value="HttpRequestHandlerChain" style="rounded=1;whiteSpace=wrap;html=1;sketch=1;hachureGap=4;jiggle=2;strokeColor=#D0CEE2;fontFamily=Architects Daughter;fontSource=https%3A%2F%2Ffonts.googleapis.com%2Fcss%3Ffamily%3DArchitects%2BDaughter;fontSize=20;fontColor=#FFFFFF;fillColor=#5D7F99;" parent="43" vertex="1"><mxGeometry x="370" y="45" width="270" height="60" as="geometry"/></mxCell><mxCell id="49" value="get http request" style="text;html=1;strokeColor=none;fillColor=none;align=center;verticalAlign=middle;whiteSpace=wrap;rounded=0;sketch=1;hachureGap=4;jiggle=2;fontFamily=Architects Daughter;fontSource=https%3A%2F%2Ffonts.googleapis.com%2Fcss%3Ffamily%3DArchitects%2BDaughter;fontSize=20;fontColor=#FFFFFF;" parent="43" vertex="1"><mxGeometry x="170" y="60" width="160" height="30" as="geometry"/></mxCell><mxCell id="50" value="" style="edgeStyle=orthogonalEdgeStyle;rounded=1;sketch=1;hachureGap=4;jiggle=2;orthogonalLoop=1;jettySize=auto;html=1;entryX=0;entryY=0.5;entryDx=0;entryDy=0;strokeColor=#736CA8;fontFamily=Architects Daughter;fontSource=https%3A%2F%2Ffonts.googleapis.com%2Fcss%3Ffamily%3DArchitects%2BDaughter;fontSize=16;fontColor=#FFFFFF;endArrow=none;" parent="43" source="44" target="49" edge="1"><mxGeometry relative="1" as="geometry"><mxPoint x="670" y="100" as="sourcePoint"/><mxPoint x="900" y="100" as="targetPoint"/></mxGeometry></mxCell><mxCell id="51" value="&lt;span style=&quot;font-weight: 400;&quot;&gt;a&lt;/span&gt;" style="swimlane;whiteSpace=wrap;html=1;rounded=1;sketch=1;hachureGap=4;jiggle=2;strokeColor=#D0CEE2;fontFamily=Architects Daughter;fontSource=https%3A%2F%2Ffonts.googleapis.com%2Fcss%3Ffamily%3DArchitects%2BDaughter;fontSize=20;fontColor=#FFFFFF;fillColor=#5D7F99;" parent="1" vertex="1"><mxGeometry x="1350" y="30" width="1410" height="620" as="geometry"/></mxCell><mxCell id="56" style="edgeStyle=orthogonalEdgeStyle;rounded=1;sketch=1;hachureGap=4;jiggle=2;orthogonalLoop=1;jettySize=auto;html=1;entryX=0;entryY=0.5;entryDx=0;entryDy=0;strokeColor=#736CA8;fontFamily=Architects Daughter;fontSource=https%3A%2F%2Ffonts.googleapis.com%2Fcss%3Ffamily%3DArchitects%2BDaughter;fontSize=16;fontColor=#FFFFFF;" parent="51" source="52" target="53" edge="1"><mxGeometry relative="1" as="geometry"/></mxCell><mxCell id="57" style="edgeStyle=orthogonalEdgeStyle;rounded=1;sketch=1;hachureGap=4;jiggle=2;orthogonalLoop=1;jettySize=auto;html=1;entryX=0;entryY=0.5;entryDx=0;entryDy=0;strokeColor=#736CA8;fontFamily=Architects Daughter;fontSource=https%3A%2F%2Ffonts.googleapis.com%2Fcss%3Ffamily%3DArchitects%2BDaughter;fontSize=16;fontColor=#FFFFFF;" parent="51" source="52" target="55" edge="1"><mxGeometry relative="1" as="geometry"/></mxCell><mxCell id="52" value="analyze method" style="rounded=1;whiteSpace=wrap;html=1;sketch=1;hachureGap=4;jiggle=2;strokeColor=#D0CEE2;fontFamily=Architects Daughter;fontSource=https%3A%2F%2Ffonts.googleapis.com%2Fcss%3Ffamily%3DArchitects%2BDaughter;fontSize=20;fontColor=#FFFFFF;fillColor=#5D7F99;" parent="51" vertex="1"><mxGeometry x="50" y="225" width="120" height="60" as="geometry"/></mxCell><mxCell id="53" value="GET" style="rounded=1;whiteSpace=wrap;html=1;sketch=1;hachureGap=4;jiggle=2;strokeColor=#D0CEE2;fontFamily=Architects Daughter;fontSource=https%3A%2F%2Ffonts.googleapis.com%2Fcss%3Ffamily%3DArchitects%2BDaughter;fontSize=20;fontColor=#FFFFFF;fillColor=#5D7F99;" parent="51" vertex="1"><mxGeometry x="212" y="95" width="120" height="60" as="geometry"/></mxCell><mxCell id="59" style="edgeStyle=orthogonalEdgeStyle;rounded=1;sketch=1;hachureGap=4;jiggle=2;orthogonalLoop=1;jettySize=auto;html=1;entryX=0;entryY=0.5;entryDx=0;entryDy=0;strokeColor=#736CA8;fontFamily=Architects Daughter;fontSource=https%3A%2F%2Ffonts.googleapis.com%2Fcss%3Ffamily%3DArchitects%2BDaughter;fontSize=16;fontColor=#FFFFFF;" parent="51" source="55" target="58" edge="1"><mxGeometry relative="1" as="geometry"/></mxCell><mxCell id="55" value="POST" style="rounded=1;whiteSpace=wrap;html=1;sketch=1;hachureGap=4;jiggle=2;strokeColor=#D0CEE2;fontFamily=Architects Daughter;fontSource=https%3A%2F%2Ffonts.googleapis.com%2Fcss%3Ffamily%3DArchitects%2BDaughter;fontSize=20;fontColor=#FFFFFF;fillColor=#5D7F99;" parent="51" vertex="1"><mxGeometry x="210" y="340" width="120" height="60" as="geometry"/></mxCell><mxCell id="61" style="edgeStyle=orthogonalEdgeStyle;rounded=1;sketch=1;hachureGap=4;jiggle=2;orthogonalLoop=1;jettySize=auto;html=1;strokeColor=#736CA8;fontFamily=Architects Daughter;fontSource=https%3A%2F%2Ffonts.googleapis.com%2Fcss%3Ffamily%3DArchitects%2BDaughter;fontSize=16;fontColor=#FFFFFF;" parent="51" source="58" target="60" edge="1"><mxGeometry relative="1" as="geometry"/></mxCell><mxCell id="66" style="edgeStyle=orthogonalEdgeStyle;rounded=1;sketch=1;hachureGap=4;jiggle=2;orthogonalLoop=1;jettySize=auto;html=1;entryX=0;entryY=0.5;entryDx=0;entryDy=0;strokeColor=#736CA8;fontFamily=Architects Daughter;fontSource=https%3A%2F%2Ffonts.googleapis.com%2Fcss%3Ffamily%3DArchitects%2BDaughter;fontSize=16;fontColor=#FFFFFF;" parent="51" source="58" target="65" edge="1"><mxGeometry relative="1" as="geometry"/></mxCell><mxCell id="58" value="analyze uri" style="rounded=1;whiteSpace=wrap;html=1;sketch=1;hachureGap=4;jiggle=2;strokeColor=#D0CEE2;fontFamily=Architects Daughter;fontSource=https%3A%2F%2Ffonts.googleapis.com%2Fcss%3Ffamily%3DArchitects%2BDaughter;fontSize=20;fontColor=#FFFFFF;fillColor=#5D7F99;" parent="51" vertex="1"><mxGeometry x="390" y="340" width="120" height="60" as="geometry"/></mxCell><mxCell id="68" style="edgeStyle=orthogonalEdgeStyle;rounded=1;sketch=1;hachureGap=4;jiggle=2;orthogonalLoop=1;jettySize=auto;html=1;entryX=0;entryY=0.5;entryDx=0;entryDy=0;strokeColor=#736CA8;fontFamily=Architects Daughter;fontSource=https%3A%2F%2Ffonts.googleapis.com%2Fcss%3Ffamily%3DArchitects%2BDaughter;fontSize=16;fontColor=#FFFFFF;" parent="51" source="60" target="67" edge="1"><mxGeometry relative="1" as="geometry"/></mxCell><mxCell id="60" value="/create/repo" style="rounded=1;whiteSpace=wrap;html=1;sketch=1;hachureGap=4;jiggle=2;strokeColor=#D0CEE2;fontFamily=Architects Daughter;fontSource=https%3A%2F%2Ffonts.googleapis.com%2Fcss%3Ffamily%3DArchitects%2BDaughter;fontSize=20;fontColor=#FFFFFF;fillColor=#5D7F99;" parent="51" vertex="1"><mxGeometry x="620" y="340" width="140" height="60" as="geometry"/></mxCell><mxCell id="64" value="http response" style="shape=parallelogram;perimeter=parallelogramPerimeter;whiteSpace=wrap;html=1;fixedSize=1;rounded=1;sketch=1;hachureGap=4;jiggle=2;strokeColor=#D0CEE2;fontFamily=Architects Daughter;fontSource=https%3A%2F%2Ffonts.googleapis.com%2Fcss%3Ffamily%3DArchitects%2BDaughter;fontSize=20;fontColor=#FFFFFF;fillColor=#5D7F99;" parent="51" vertex="1"><mxGeometry x="1210" y="280" width="170" height="60" as="geometry"/></mxCell><mxCell id="65" value="/delete/repo" style="rounded=1;whiteSpace=wrap;html=1;sketch=1;hachureGap=4;jiggle=2;strokeColor=#D0CEE2;fontFamily=Architects Daughter;fontSource=https%3A%2F%2Ffonts.googleapis.com%2Fcss%3Ffamily%3DArchitects%2BDaughter;fontSize=20;fontColor=#FFFFFF;fillColor=#5D7F99;" parent="51" vertex="1"><mxGeometry x="624" y="440" width="140" height="60" as="geometry"/></mxCell><mxCell id="70" style="edgeStyle=orthogonalEdgeStyle;rounded=1;sketch=1;hachureGap=4;jiggle=2;orthogonalLoop=1;jettySize=auto;html=1;entryX=0;entryY=0.5;entryDx=0;entryDy=0;strokeColor=#736CA8;fontFamily=Architects Daughter;fontSource=https%3A%2F%2Ffonts.googleapis.com%2Fcss%3Ffamily%3DArchitects%2BDaughter;fontSize=16;fontColor=#FFFFFF;" parent="51" source="67" target="64" edge="1"><mxGeometry relative="1" as="geometry"/></mxCell><mxCell id="67" value="create&amp;nbsp;repository handler" style="rounded=1;whiteSpace=wrap;html=1;sketch=1;hachureGap=4;jiggle=2;strokeColor=#D0CEE2;fontFamily=Architects Daughter;fontSource=https%3A%2F%2Ffonts.googleapis.com%2Fcss%3Ffamily%3DArchitects%2BDaughter;fontSize=20;fontColor=#FFFFFF;fillColor=#5D7F99;" parent="51" vertex="1"><mxGeometry x="840" y="340" width="220" height="60" as="geometry"/></mxCell><mxCell id="73" value="Data repository" style="swimlane;whiteSpace=wrap;html=1;rounded=1;sketch=1;hachureGap=4;jiggle=2;strokeColor=#D0CEE2;fontFamily=Architects Daughter;fontSource=https%3A%2F%2Ffonts.googleapis.com%2Fcss%3Ffamily%3DArchitects%2BDaughter;fontSize=20;fontColor=#FFFFFF;fillColor=#5D7F99;" parent="1" vertex="1"><mxGeometry x="30" y="600" width="720" height="620" as="geometry"/></mxCell><mxCell id="74" value="repository" style="swimlane;whiteSpace=wrap;html=1;rounded=1;sketch=1;hachureGap=4;jiggle=2;strokeColor=#D0CEE2;fontFamily=Architects Daughter;fontSource=https%3A%2F%2Ffonts.googleapis.com%2Fcss%3Ffamily%3DArchitects%2BDaughter;fontSize=20;fontColor=#FFFFFF;fillColor=#5D7F99;" parent="73" vertex="1"><mxGeometry x="30" y="50" width="460" height="400" as="geometry"/></mxCell><mxCell id="76" value="Attributes" style="swimlane;fontStyle=0;childLayout=stackLayout;horizontal=1;startSize=26;fillColor=none;horizontalStack=0;resizeParent=1;resizeParentMax=0;resizeLast=0;collapsible=1;marginBottom=0;html=1;rounded=1;sketch=1;hachureGap=4;jiggle=2;strokeColor=#D0CEE2;fontFamily=Architects Daughter;fontSource=https%3A%2F%2Ffonts.googleapis.com%2Fcss%3Ffamily%3DArchitects%2BDaughter;fontSize=20;fontColor=#FFFFFF;" parent="74" vertex="1"><mxGeometry x="160" y="30" width="140" height="78" as="geometry"/></mxCell><mxCell id="77" value="name" style="text;strokeColor=none;fillColor=none;align=left;verticalAlign=top;spacingLeft=4;spacingRight=4;overflow=hidden;rotatable=0;points=[[0,0.5],[1,0.5]];portConstraint=eastwest;whiteSpace=wrap;html=1;rounded=1;sketch=1;hachureGap=4;jiggle=2;fontFamily=Architects Daughter;fontSource=https%3A%2F%2Ffonts.googleapis.com%2Fcss%3Ffamily%3DArchitects%2BDaughter;fontSize=20;fontColor=#FFFFFF;" parent="76" vertex="1"><mxGeometry y="26" width="140" height="26" as="geometry"/></mxCell><mxCell id="78" value="engine" style="text;strokeColor=none;fillColor=none;align=left;verticalAlign=top;spacingLeft=4;spacingRight=4;overflow=hidden;rotatable=0;points=[[0,0.5],[1,0.5]];portConstraint=eastwest;whiteSpace=wrap;html=1;rounded=1;sketch=1;hachureGap=4;jiggle=2;fontFamily=Architects Daughter;fontSource=https%3A%2F%2Ffonts.googleapis.com%2Fcss%3Ffamily%3DArchitects%2BDaughter;fontSize=20;fontColor=#FFFFFF;" parent="76" vertex="1"><mxGeometry y="52" width="140" height="26" as="geometry"/></mxCell><mxCell id="80" value="bucket" style="swimlane;whiteSpace=wrap;html=1;rounded=1;sketch=1;hachureGap=4;jiggle=2;strokeColor=#D0CEE2;fontFamily=Architects Daughter;fontSource=https%3A%2F%2Ffonts.googleapis.com%2Fcss%3Ffamily%3DArchitects%2BDaughter;fontSize=20;fontColor=#FFFFFF;fillColor=#5D7F99;" parent="74" vertex="1"><mxGeometry x="10" y="120" width="440" height="260" as="geometry"/></mxCell><mxCell id="81" value="script handler" style="swimlane;whiteSpace=wrap;html=1;rounded=1;sketch=1;hachureGap=4;jiggle=2;strokeColor=#D0CEE2;fontFamily=Architects Daughter;fontSource=https%3A%2F%2Ffonts.googleapis.com%2Fcss%3Ffamily%3DArchitects%2BDaughter;fontSize=20;fontColor=#FFFFFF;startSize=23;fillColor=#5D7F99;" vertex="1" parent="73"><mxGeometry x="510" y="50" width="200" height="200" as="geometry"/></mxCell></root></mxGraphModel></diagram></mxfile>